<svg viewBox="0 0 76 32" fill="#fff" xmlns="http://www.w3.org/2000/svg" height="36" width="87"><title>Evri Logo Made For You</title>
 <g clip-path="url(#fff)">
 <path fill-rule="evenodd" clip-rule="evenodd" d="M71.1212 0C72.6175 0 73.8344 1.1538 73.8344 2.65014C73.8344 4.15549 72.6175 5.30028 71.1212 5.30028C69.6248 5.30028 68.4079 4.14648 68.4079 2.65014C68.4079 1.14479 69.6248 0 71.1212 0ZM18.6952 0.144223V5.85915H15.0355V3.54253H6.22874V9.26648H14.2333V12.5116H6.22874V18.2896H15.0355V15.973H18.6952V21.6969H0.234375V18.2896H2.26254V3.54253H0.234375V0.144223H18.6952ZM31.6034 15.351L37.5076 0.144223H39.7611L31.1978 21.7961H28.8361L20.2276 0.144223H25.7533L31.6034 15.351ZM44.4485 10.5194V2.77634H55.9685C57.8975 2.77634 58.9972 3.10084 59.7454 3.78591C60.4124 4.39887 60.791 5.28225 60.791 6.4631C60.791 7.68 60.4575 8.68056 59.7815 9.39268C59.0784 10.1318 58.0237 10.5285 56.0406 10.5285H44.4485V10.5194ZM65.9561 21.6969L58.3392 12.8992C61.5753 12.5656 64.0271 10.222 64.0271 6.42704C64.0271 4.50704 63.4502 3.03775 62.3595 2.01014C61.0164 0.739153 59.0693 0.144223 55.9685 0.144223H41.3116V21.6969H44.4485V13.1516H54.8417L62.0981 21.6969H65.9561ZM73.4828 18.7944C73.4828 20.0563 74.0057 20.5702 75.1685 21.1561V21.6969H67.3082V21.1561C68.471 20.5792 68.9938 20.0563 68.9938 18.7944V10.5465C68.9938 9.42874 68.7955 8.81578 67.3082 7.82423V7.28339H73.4828V18.7944ZM53.3904 26.5555H54.1657V25.8434H53.3904V25.5459C53.3904 25.3025 53.4445 25.1313 53.5527 25.0321C53.6519 24.933 53.8411 24.8879 54.1026 24.8879V24.1668C53.5617 24.1668 53.1561 24.284 52.9037 24.5003C52.6423 24.7256 52.5161 25.0772 52.5161 25.5549V25.8524H52.0203V26.5555H52.5161V30.0349H53.3904V26.5555ZM11.0513 25.1403C10.9431 25.0321 10.889 24.9059 10.889 24.7437C10.889 24.5904 10.9431 24.4552 11.0513 24.347C11.1594 24.2389 11.2856 24.1848 11.4479 24.1848C11.6011 24.1848 11.7273 24.2389 11.8355 24.347C11.9436 24.4552 11.9977 24.5814 11.9977 24.7437C11.9977 24.8969 11.9436 25.0321 11.8355 25.1403C11.7273 25.2484 11.6011 25.3025 11.4479 25.3025C11.2856 25.2935 11.1594 25.2394 11.0513 25.1403ZM11.8715 25.8524V30.0349H11.0062V25.8524H11.8715ZM0.261409 26.8079C0.432676 26.4834 0.676056 26.231 0.973521 26.0507C1.27099 25.8704 1.61352 25.7803 1.9831 25.7803C2.25352 25.7803 2.52394 25.8434 2.79437 25.9606C3.05578 26.0778 3.27211 26.24 3.42535 26.4383V24.4192H4.29972V30.0349H3.42535V29.4039C3.28113 29.6023 3.09183 29.7735 2.83944 29.9087C2.58704 30.0439 2.29859 30.107 1.97408 30.107C1.61352 30.107 1.28 30.0169 0.973521 29.8276C0.676056 29.6473 0.432676 29.3859 0.261409 29.0524C0.0901409 28.7189 0 28.3493 0 27.9256C0 27.502 0.0901409 27.1324 0.261409 26.8079ZM3.24507 27.1865C3.12789 26.9702 2.97465 26.8079 2.77634 26.6997C2.58704 26.5916 2.37972 26.5285 2.15437 26.5285C1.92901 26.5285 1.72169 26.5825 1.53239 26.6907C1.3431 26.7989 1.18085 26.9611 1.06366 27.1685C0.946479 27.3758 0.88338 27.6282 0.88338 27.9166C0.88338 28.2051 0.946479 28.4575 1.06366 28.6738C1.18085 28.8902 1.3431 29.0614 1.53239 29.1696C1.7307 29.2868 1.92901 29.3409 2.15437 29.3409C2.37972 29.3409 2.58704 29.2868 2.77634 29.1696C2.96563 29.0614 3.12789 28.8992 3.24507 28.6828C3.36225 28.4665 3.42535 28.2141 3.42535 27.9256C3.42535 27.6462 3.36225 27.3938 3.24507 27.1865ZM8.86986 28.2592H5.67887C5.70591 28.5927 5.83211 28.8631 6.04845 29.0614C6.2738 29.2597 6.54422 29.3679 6.86873 29.3679C7.33746 29.3679 7.66197 29.1696 7.85127 28.782H8.78873C8.66254 29.1696 8.43718 29.4851 8.10366 29.7285C7.77014 29.9718 7.36451 30.098 6.86873 30.098C6.47211 30.098 6.11155 30.0079 5.79605 29.8276C5.48056 29.6473 5.22817 29.3949 5.04789 29.0704C4.8676 28.7459 4.77746 28.3673 4.77746 27.9347C4.77746 27.502 4.8676 27.1234 5.03887 26.7989C5.21014 26.4744 5.46253 26.222 5.77803 26.0417C6.09352 25.8614 6.45408 25.7803 6.86873 25.7803C7.26535 25.7803 7.6169 25.8704 7.92338 26.0417C8.22986 26.213 8.47324 26.4563 8.64451 26.7628C8.81578 27.0783 8.90592 27.4299 8.90592 27.8355C8.8969 27.9978 8.88789 28.133 8.86986 28.2592ZM7.99549 27.5651C7.98648 27.2496 7.87831 26.9882 7.65296 26.7989C7.42761 26.6096 7.15718 26.5104 6.82366 26.5104C6.5262 26.5104 6.2738 26.6096 6.05746 26.7989C5.84113 26.9882 5.71493 27.2496 5.67887 27.5651H7.99549ZM10.24 30.0349V24.4192H9.37465V30.0349H10.24ZM15.4321 25.8524L14.2513 29.2597L13.0704 25.8524H12.142L13.7195 30.0349H14.7561L16.3516 25.8524H15.4321ZM20.4439 28.2592H17.253C17.28 28.5927 17.4062 28.8631 17.6225 29.0614C17.8479 29.2597 18.1183 29.3679 18.4428 29.3679C18.9115 29.3679 19.236 29.1696 19.4253 28.782H20.3628C20.2366 29.1696 20.0113 29.4851 19.6777 29.7285C19.3442 29.9718 18.9386 30.098 18.4428 30.098C18.0462 30.098 17.6856 30.0079 17.3701 29.8276C17.0546 29.6473 16.8022 29.3949 16.622 29.0704C16.4417 28.7459 16.3515 28.3673 16.3515 27.9347C16.3515 27.502 16.4417 27.1234 16.613 26.7989C16.7842 26.4744 17.0366 26.222 17.3521 26.0417C17.6676 25.8614 18.0282 25.7803 18.4428 25.7803C18.8394 25.7803 19.191 25.8704 19.4974 26.0417C19.8039 26.213 20.0473 26.4563 20.2186 26.7628C20.3898 27.0783 20.48 27.4299 20.48 27.8355C20.471 27.9978 20.462 28.133 20.4439 28.2592ZM19.5696 27.5651C19.5605 27.2496 19.4524 26.9882 19.227 26.7989C19.0017 26.6096 18.7313 26.5104 18.3977 26.5104C18.1003 26.5104 17.8479 26.6096 17.6315 26.7989C17.4152 26.9882 17.289 27.2496 17.253 27.5651H19.5696ZM23.067 25.7803C22.7786 25.7803 22.5262 25.8434 22.3189 25.9606C22.1116 26.0778 21.9403 26.249 21.8231 26.4473V25.8434H20.9578V30.0259H21.8231V27.8265C21.8231 27.4028 21.9132 27.1054 22.0845 26.9341C22.2558 26.7628 22.5082 26.6727 22.8507 26.6727H23.067V25.7803ZM27.5561 25.8524L24.987 32H24.0946L24.942 29.9628L23.2924 25.8524H24.2569L25.4378 29.0434L26.6637 25.8524H27.5561ZM35.9933 26.5916C35.849 26.3302 35.6417 26.1228 35.3803 25.9876C35.1189 25.8524 34.8214 25.7803 34.4969 25.7803C34.1904 25.7803 33.902 25.8524 33.6316 26.0056C33.3611 26.1589 33.1628 26.3572 33.0366 26.6096C32.9014 26.3392 32.6941 26.1409 32.4327 25.9966C32.1713 25.8524 31.8738 25.7803 31.5403 25.7803C31.2969 25.7803 31.0626 25.8254 30.8462 25.9245C30.6299 26.0237 30.4496 26.1589 30.3054 26.3302V25.8524H29.44V30.0349H30.3054V27.7003C30.3054 27.3217 30.4045 27.0332 30.5938 26.8349C30.7831 26.6366 31.0355 26.5375 31.36 26.5375C31.6845 26.5375 31.9369 26.6366 32.1262 26.8349C32.3155 27.0423 32.4057 27.3217 32.4057 27.7003V30.0349H33.262V27.7003C33.262 27.3217 33.3611 27.0332 33.5504 26.8349C33.7397 26.6366 33.9921 26.5375 34.3166 26.5375C34.6411 26.5375 34.8935 26.6366 35.0828 26.8349C35.2721 27.0423 35.3623 27.3217 35.3623 27.7003V30.0349H36.2186V27.5651C36.2186 27.1865 36.1465 26.862 35.9933 26.5916ZM36.9217 26.8079C37.093 26.4834 37.3364 26.231 37.6338 26.0507C37.9313 25.8704 38.2648 25.7803 38.6344 25.7803C38.9589 25.7803 39.2474 25.8434 39.4997 25.9696C39.7431 26.0958 39.9414 26.258 40.0857 26.4473V25.8434H40.96V30.0259H40.0857V29.4039C39.9414 29.6023 39.7431 29.7645 39.4817 29.8997C39.2293 30.0349 38.9409 30.098 38.6164 30.098C38.2558 30.098 37.9313 30.0079 37.6338 29.8186C37.3364 29.6383 37.102 29.3769 36.9217 29.0434C36.7505 28.7099 36.6603 28.3403 36.6603 27.9166C36.6603 27.493 36.7505 27.1324 36.9217 26.8079ZM39.9054 27.1865C39.7882 26.9702 39.635 26.8079 39.4366 26.6997C39.2473 26.5916 39.04 26.5285 38.8147 26.5285C38.5893 26.5285 38.382 26.5826 38.1927 26.6907C38.0034 26.7989 37.8412 26.9611 37.724 27.1685C37.6068 27.3758 37.5437 27.6282 37.5437 27.9166C37.5437 28.2051 37.6068 28.4575 37.724 28.6738C37.8412 28.8902 38.0034 29.0614 38.1927 29.1696C38.391 29.2868 38.5893 29.3409 38.8147 29.3409C39.04 29.3409 39.2473 29.2868 39.4366 29.1696C39.6259 29.0614 39.7882 28.8992 39.9054 28.6828C40.0226 28.4665 40.0857 28.2141 40.0857 27.9256C40.0857 27.6462 40.0226 27.3938 39.9054 27.1865ZM42.4113 26.0507C42.1138 26.231 41.8704 26.4834 41.6992 26.8079C41.5189 27.1324 41.4378 27.502 41.4378 27.9256C41.4378 28.3493 41.5279 28.7189 41.6992 29.0524C41.8704 29.3859 42.1138 29.6473 42.4113 29.8276C42.7178 30.0169 43.0513 30.107 43.4119 30.107C43.7364 30.107 44.0248 30.0439 44.2772 29.9087C44.5296 29.7735 44.7189 29.6023 44.8631 29.4039V30.0349H45.7375V24.4192H44.8631V26.4383C44.7099 26.24 44.4936 26.0778 44.2321 25.9606C43.9617 25.8434 43.6913 25.7803 43.4209 25.7803C43.0513 25.7803 42.7088 25.8704 42.4113 26.0507ZM44.2141 26.6997C44.4124 26.8079 44.5657 26.9702 44.6828 27.1865C44.8 27.3938 44.8541 27.6462 44.8631 27.9256C44.8631 28.2141 44.8 28.4665 44.6828 28.6828C44.5657 28.8992 44.4034 29.0614 44.2141 29.1696C44.0248 29.2868 43.8175 29.3409 43.5921 29.3409C43.3668 29.3409 43.1685 29.2868 42.9702 29.1696C42.7809 29.0614 42.6186 28.8902 42.5014 28.6738C42.3843 28.4575 42.3212 28.2051 42.3212 27.9166C42.3212 27.6282 42.3843 27.3758 42.5014 27.1685C42.6186 26.9611 42.7809 26.7989 42.9702 26.6907C43.1595 26.5825 43.3668 26.5285 43.5921 26.5285C43.8175 26.5285 44.0248 26.5916 44.2141 26.6997ZM50.2986 28.2592H47.1076C47.1347 28.5927 47.2609 28.8631 47.4772 29.0614C47.7026 29.2597 47.973 29.3679 48.2975 29.3679C48.7662 29.3679 49.0907 29.1696 49.28 28.782H50.2175C50.0913 29.1696 49.8659 29.4851 49.5324 29.7285C49.1989 29.9718 48.7933 30.098 48.2975 30.098C47.9009 30.098 47.5403 30.0079 47.2248 29.8276C46.9093 29.6473 46.6569 29.3949 46.4766 29.0704C46.2964 28.7459 46.2062 28.3673 46.2062 27.9347C46.2062 27.502 46.2964 27.1234 46.4676 26.7989C46.6389 26.4744 46.8913 26.222 47.2068 26.0417C47.5223 25.8614 47.8828 25.7803 48.2975 25.7803C48.6941 25.7803 49.0457 25.8704 49.3521 26.0417C49.6586 26.213 49.902 26.4563 50.0733 26.7628C50.2445 27.0783 50.3347 27.4299 50.3347 27.8355C50.3257 27.9978 50.3166 28.133 50.2986 28.2592ZM49.4243 27.5651C49.4152 27.2496 49.3071 26.9882 49.0817 26.7989C48.8564 26.6096 48.5859 26.5104 48.2524 26.5104C47.955 26.5104 47.7026 26.6096 47.4862 26.7989C47.2699 26.9882 47.1437 27.2496 47.1076 27.5651H49.4243ZM55.3014 29.8276C54.9859 29.6473 54.7335 29.3949 54.5532 29.0704C54.3729 28.7459 54.2828 28.3673 54.2828 27.9347C54.2828 27.511 54.373 27.1324 54.5622 26.8079C54.7515 26.4834 55.0039 26.222 55.3284 26.0507C55.653 25.8704 56.0135 25.7893 56.4101 25.7893C56.8068 25.7893 57.1673 25.8794 57.4918 26.0507C57.8163 26.231 58.0687 26.4834 58.258 26.8079C58.4473 27.1324 58.5375 27.511 58.5375 27.9347C58.5375 28.3583 58.4383 28.7369 58.249 29.0614C58.0597 29.3949 57.7983 29.6473 57.4648 29.8276C57.1313 30.0079 56.7707 30.098 56.3651 30.098C55.9775 30.098 55.6169 30.0079 55.3014 29.8276ZM56.996 29.1876C57.1944 29.0795 57.3476 28.9262 57.4738 28.7099C57.6 28.4935 57.6541 28.2411 57.6541 27.9347C57.6541 27.6282 57.6 27.3758 57.4828 27.1685C57.3656 26.9611 57.2124 26.7989 57.0231 26.6907C56.8338 26.5826 56.6265 26.5285 56.4011 26.5285C56.1758 26.5285 55.9684 26.5826 55.7791 26.6907C55.5899 26.7989 55.4366 26.9521 55.3284 27.1685C55.2203 27.3758 55.1572 27.6372 55.1572 27.9347C55.1572 28.3854 55.2744 28.7369 55.4997 28.9803C55.7341 29.2237 56.0225 29.3499 56.3651 29.3499C56.5904 29.3499 56.7977 29.2958 56.996 29.1876ZM61.1425 25.7803C60.8541 25.7803 60.6017 25.8434 60.3944 25.9606C60.187 26.0778 60.0158 26.249 59.8986 26.4473V25.8434H59.0332V30.0259H59.8986V27.8265C59.8986 27.4028 59.9887 27.1054 60.16 26.9341C60.3313 26.7628 60.5837 26.6727 60.9262 26.6727H61.1425V25.7803ZM66.9386 25.8524L64.3696 32H63.4772L64.3245 29.9628L62.6749 25.8524H63.6394L64.8203 29.0434L66.0462 25.8524H66.9386ZM67.0558 29.0704C67.2361 29.3949 67.4885 29.6473 67.804 29.8276C68.1285 30.0079 68.48 30.098 68.8676 30.098C69.2733 30.098 69.6338 30.0079 69.9673 29.8276C70.3008 29.6473 70.5623 29.3949 70.7516 29.0614C70.9408 28.7369 71.04 28.3583 71.04 27.9347C71.04 27.511 70.9499 27.1324 70.7606 26.8079C70.5713 26.4834 70.3189 26.231 69.9944 26.0507C69.6699 25.8794 69.3093 25.7893 68.9127 25.7893C68.5161 25.7893 68.1555 25.8704 67.831 26.0507C67.5065 26.222 67.2541 26.4834 67.0648 26.8079C66.8755 27.1324 66.7854 27.511 66.7854 27.9347C66.7854 28.3673 66.8755 28.7459 67.0558 29.0704ZM69.9854 28.7099C69.8592 28.9262 69.7059 29.0795 69.5076 29.1876C69.3093 29.2958 69.102 29.3499 68.8766 29.3499C68.5341 29.3499 68.2456 29.2237 68.0113 28.9803C67.7859 28.7369 67.6687 28.3854 67.6687 27.9347C67.6687 27.6372 67.7318 27.3758 67.84 27.1685C67.9482 26.9521 68.1014 26.7989 68.2907 26.6907C68.48 26.5826 68.6873 26.5285 68.9127 26.5285C69.138 26.5285 69.3454 26.5826 69.5347 26.6907C69.724 26.7989 69.8772 26.9611 69.9944 27.1685C70.1116 27.3758 70.1656 27.6282 70.1656 27.9347C70.1656 28.2411 70.1116 28.4935 69.9854 28.7099ZM75.3217 25.8524V30.0349H74.4563V29.5392C74.3211 29.7104 74.1408 29.8456 73.9245 29.9448C73.7082 30.0439 73.4738 30.089 73.2214 30.089C72.8969 30.089 72.5994 30.0169 72.338 29.8817C72.0766 29.7465 71.8693 29.5392 71.7251 29.2778C71.5718 29.0073 71.4997 28.6828 71.4997 28.3042V25.8434H72.356V28.169C72.356 28.5476 72.4462 28.827 72.6355 29.0344C72.8248 29.2327 73.0772 29.3318 73.4017 29.3318C73.7262 29.3318 73.9786 29.2327 74.1679 29.0344C74.3572 28.8361 74.4563 28.5476 74.4563 28.169V25.8434L75.3217 25.8524Z" fill="#e5e5e5"></path>
 </g>
 <defs>
 <clipPath id="#fff">
 <rect width="75.3217" height="32" fill="#fff"></rect>
 </clipPath>
 </defs>
 </svg>
