<?xml version="1.0" encoding="UTF-8" standalone="no"?>
<svg
   xmlns:dc="http://purl.org/dc/elements/1.1/"
   xmlns:cc="http://creativecommons.org/ns#"
   xmlns:rdf="http://www.w3.org/1999/02/22-rdf-syntax-ns#"
   xmlns:svg="http://www.w3.org/2000/svg"
   xmlns="http://www.w3.org/2000/svg"
   viewBox="0 0 340.16 66.41333"
   height="55"
   width="255"
   xml:space="preserve"
   id="svg2"
   version="1.1"><metadata
     id="metadata8"><rdf:RDF><cc:Work
         rdf:about=""><dc:format>image/svg+xml</dc:format><dc:type
           rdf:resource="http://purl.org/dc/dcmitype/StillImage" /></cc:Work></rdf:RDF></metadata><defs
     id="defs6" /><g
     transform="matrix(1.3333333,0,0,-1.3333333,0,66.413333)"
     id="g10"><g
       transform="scale(0.1)"
       id="g12"><path
         id="path14"
         style="fill:#ffffff;fill-opacity:1;fill-rule:nonzero;stroke:none"
         d="m 382.34,34.1602 c 24.098,14.2578 45.305,32.9101 62.64,54.7265 H 418.645 C 409.031,67.9492 396.98,49.2578 382.34,34.1602 M 358.391,88.8867 C 351.797,65.3125 343.355,44.5703 332.871,28.6133 h 34.207 c 18.383,15.332 33.16,36.1914 44.52,60.2734 z M 314.141,7.26563 c 14.918,3.24217 29.32,7.92967 43.007,13.94527 0.532,0.3516 1.067,0.6641 1.59,1.0157 H 328.422 C 323.984,16.3477 319.199,11.3672 314.141,7.26563 m 6.605,14.96097 h -32.394 c -2.161,-8.2422 -4.719,-14.90238 -7.571,-19.68754 5.571,0.41016 11.067,0.95703 16.539,1.73828 8.598,3.51563 16.43,9.58986 23.426,17.94926 M 265.254,2.01172 c 2.633,0 5.172,0.09766 7.711,0.21484 3.012,2.57813 6.012,9.29684 8.816,20.00004 H 264.723 V 2.01172 Z M 438.063,185.781 c 1.808,15.254 2.734,30.606 2.734,45.821 0,0.156 0,0.273 0,0.41 h -65.07 v -0.41 c 0,-15.215 -0.532,-30.567 -1.622,-45.821 z m 11.839,-90.4685 c 18.262,24.6485 31.629,53.2035 38.836,84.0625 h -45.004 c -3.949,-29.512 -11.375,-58.32 -22.332,-84.0625 z M 369.34,231.602 v 0.41 h -65.07 v -0.41 c 0,-8.75 -0.055,-25.332 -0.536,-45.821 h 63.981 c 1.051,15.254 1.625,30.606 1.625,45.821 m -71.434,0 v 0.41 h -33.183 v -46.231 h 32.664 c 0.304,14.571 0.519,29.844 0.519,45.821 m -0.687,-52.227 H 264.723 V 95.3125 h 27.957 c 2.101,23.9845 3.734,52.1875 4.539,84.0625 m 192.937,6.406 c 3.012,14.805 4.586,30.137 4.586,45.821 0,0.156 -0.054,0.273 -0.054,0.41 h -47.477 v -0.41 c 0,-15.215 -0.91,-30.567 -2.742,-45.821 z m -75.64,-90.4685 c 11.199,25.5665 18.73,54.4335 22.773,84.0625 h -63.68 c -2.386,-29.512 -6.879,-58.32 -13.57,-84.0625 z M 325.715,28.6133 c 10.926,15.332 19.617,36.1914 26.351,60.2734 h -53.429 c -2.051,-22.4804 -4.864,-43.6914 -8.696,-60.2734 z m -33.66,60.2734 H 264.723 V 28.6133 h 18.613 c 3.352,14.7265 6.355,34.9805 8.719,60.2734 m 75.23,90.4883 h -63.722 c -0.665,-25.234 -1.958,-55.391 -4.387,-84.0625 h 54.625 c 6.621,25.5665 11.105,54.4335 13.484,84.0625" /><path
         id="path16"
         style="fill:#ffffff;fill-opacity:1;fill-rule:nonzero;stroke:none"
         d="M 113.539,464.203 C 89.2188,449.742 67.8086,430.922 50.293,408.891 h 26.5937 c 9.6875,21.164 21.8946,40.031 36.6523,55.312 m 24.199,-55.312 c 6.625,23.781 15.192,44.726 25.742,60.89 H 128.953 C 110.387,454.242 95.4648,433.199 83.9805,408.891 Z m 44.711,82.441 c -15.129,-3.281 -29.672,-8.008 -43.469,-14.07 -0.55,-0.36 -1.082,-0.684 -1.609,-1.032 h 30.621 c 4.465,5.946 9.305,10.942 14.457,15.102 m -6.703,-15.102 h 32.699 c 2.207,8.282 4.797,14.997 7.684,19.829 -5.633,-0.34 -11.223,-0.926 -16.731,-1.707 -8.668,-3.551 -16.578,-9.719 -23.652,-18.122 m 56,20.395 c -2.586,0 -5.137,-0.102 -7.754,-0.172 -3.019,-2.621 -6.062,-9.433 -8.926,-20.223 h 17.243 v 20.395 c -0.164,0 -0.34,0 -0.563,0 M 57.2813,311.02 c -1.8672,-15.391 -2.8047,-30.887 -2.8047,-46.29 0,-0.125 0.0507,-0.253 0.0507,-0.378 H 120.18 v 0.378 c 0,15.403 0.597,30.899 1.675,46.29 z M 45.2969,402.398 C 26.8711,377.496 13.3672,348.668 6.09766,317.484 H 51.5625 c 3.9258,29.786 11.4453,58.907 22.5117,84.914 z M 126.664,264.73 v -0.378 h 65.738 v 0.378 c 0,8.86 0.047,25.618 0.563,46.29 h -64.676 c -1.062,-15.391 -1.625,-30.887 -1.625,-46.29 m 72.152,0 v -0.378 h 33.493 V 311.02 H 199.32 c -0.3,-14.696 -0.504,-30.145 -0.504,-46.29 m 0.688,52.754 h 32.805 v 84.914 h -28.227 c -2.129,-24.25 -3.746,-52.707 -4.578,-84.914 M 4.66797,311.02 C 1.625,296.059 0,280.57 0,264.73 c 0,-0.125 0.046875,-0.253 0.046875,-0.378 H 48.043 v 0.378 c 0,15.403 0.9218,30.899 2.7031,46.29 z M 81.0313,402.398 C 69.7344,376.578 62.1094,347.418 58.0352,317.484 h 64.2888 c 2.477,29.786 6.961,58.907 13.727,84.914 z m 89.7267,67.383 c -11.031,-15.539 -19.828,-36.582 -26.641,-60.89 h 53.973 c 2.082,22.746 4.898,44.14 8.765,60.89 z m 33.914,-60.89 h 27.637 v 60.89 h -18.762 c -3.391,-14.843 -6.414,-35.363 -8.875,-60.89 m -75.899,-91.407 h 64.301 c 0.696,25.539 2.02,55.996 4.446,84.914 h -55.157 c -6.695,-25.82 -11.211,-54.98 -13.59,-84.914" /><path
         id="path18"
         style="fill:#ffffff;fill-opacity:1;fill-rule:nonzero;stroke:none"
         d="m 378.313,360.395 c 2.296,0.82 3.527,3.332 2.718,5.617 -0.801,2.273 -3.273,3.515 -5.597,2.722 -2.305,-0.769 -3.504,-3.289 -2.719,-5.566 0.793,-2.313 3.293,-3.555 5.598,-2.773" /><path
         id="path20"
         style="fill:#ffffff;fill-opacity:1;fill-rule:nonzero;stroke:none"
         d="m 330.793,338.395 c -7.82,2.058 -16.008,-5.09 -18.211,-15.938 -2.305,-10.879 2.203,-21.387 10.063,-23.477 7.835,-2.023 15.972,5.098 18.253,15.997 2.301,11.211 -2.128,21.316 -10.105,23.418" /><path
         id="path22"
         style="fill:#ffffff;fill-opacity:1;fill-rule:nonzero;stroke:none"
         d="m 362.926,328.031 c 4.387,-1.492 8.898,-2.781 13.461,-3.398 8.601,-1.192 17.008,-0.606 25.324,1.875 3.555,1.047 6.644,2.668 9.773,4.66 1.153,0.684 2.411,1.445 3.813,2.187 -7.477,4.434 -34.574,20.528 -36.828,21.59 -1.559,-1.836 -12.473,-21.472 -15.543,-26.914" /><path
         id="path24"
         style="fill:#ffffff;fill-opacity:1;fill-rule:nonzero;stroke:none"
         d="m 401.711,427.621 c 3.555,1.074 6.644,2.668 9.773,4.66 1.153,0.711 2.411,1.492 3.813,2.227 -7.477,4.422 -34.574,20.515 -36.828,21.601 -1.559,-1.867 -12.473,-21.484 -15.543,-26.964 4.387,-1.465 8.898,-2.715 13.461,-3.368 8.601,-1.183 17.008,-0.636 25.324,1.844" /><path
         id="path26"
         style="fill:#ffffff;fill-opacity:1;fill-rule:nonzero;stroke:none"
         d="m 439.594,428.316 c -0.239,2.657 -1.125,4.989 -2.875,7.5 -2.739,3.887 -7.149,5.907 -12.574,5.938 13.789,13.269 20.582,29.519 25.171,28.379 3.676,-0.832 2.813,-21.594 -9.722,-41.817 z m 0,-101.144 c -0.239,2.656 -1.125,4.992 -2.875,7.473 -2.739,3.933 -7.149,5.925 -12.574,5.925 13.789,13.313 20.582,29.543 25.171,28.477 3.676,-0.887 2.813,-21.68 -9.722,-41.875 z m -6.278,-9.539 c -1.828,-2.199 -4.121,-3.899 -6.152,-5.879 0.606,2.859 0.387,5.527 -0.238,7.812 -0.988,-1.066 -1.922,-2.14 -3.035,-3.066 -0.125,-0.305 -0.301,-0.664 -0.411,-0.918 0.11,-3.242 -0.98,-6.516 -3.292,-9.738 -3.063,-2.332 -6.395,-4.442 -9.985,-6.395 2.102,3.172 3.465,6.68 3.625,10.274 -1.469,-0.762 -2.992,-1.543 -4.558,-2.18 -0.946,-4.402 -3.844,-8.613 -7.731,-12.188 -3.859,-1.523 -7.988,-2.761 -12.402,-3.816 3.383,3.438 6.234,7.598 6.949,12.313 -1.52,-0.282 -3.051,-0.606 -4.594,-0.789 -1.48,-5.305 -5.523,-9.583 -9.781,-12.852 -3.648,-0.695 -7.223,-1.113 -11.082,-1.328 4.082,3.73 7.551,8.543 7.984,14.199 -3.027,0.313 -4.101,-0.773 -5.152,-3.477 -0.902,-2.304 -2.324,-4.425 -3.969,-6.261 -1.648,-1.785 -4.054,-4.578 -6.687,-4.578 -1.461,0 -2.922,0.047 -4.344,0.117 -3.168,0.097 -6.344,0.34 -9.508,0.672 10.625,9.062 17.106,23.008 9.785,39.843 0.078,-0.019 0.168,-0.019 0.231,-0.066 l -0.153,0.117 16.2,27.051 c -2.735,0.633 -5.118,2.52 -6.11,5.34 -1.519,4.394 0.864,9.191 5.219,10.723 4.445,1.503 9.234,-0.829 10.754,-5.223 1.269,-3.781 -0.328,-7.676 -3.5,-9.766 l 38.531,-22.238 c 1.09,0.363 2.242,0.84 3.313,0.879 4.218,0.285 8.882,-1.055 10.961,-5.008 1.976,-3.809 2.05,-10.117 -0.868,-13.574 z m -88.574,-25.52 c -1.945,-1.074 -4.097,-1.59 -6.426,-1.152 -4.644,0.969 -9.257,1.836 -13.82,2.949 -0.976,0.02 -1.969,0.207 -2.941,0.449 -9.922,2.598 -15.715,15.618 -12.903,29.016 1.575,7.754 5.68,14.219 11.286,17.656 3.808,2.332 7.957,3.047 11.91,2.012 2.105,-0.566 3.953,-1.633 5.629,-2.922 5.265,-3.191 10.312,-5.945 15.156,-8.164 1.738,-0.789 2.715,-4.852 3.297,-6.512 0.789,-2.461 1.371,-4.992 1.625,-7.55 0.453,-5.059 -0.52,-10.106 -2.867,-14.579 -1.165,-2.285 -2.602,-4.406 -4.262,-6.339 -1.621,-1.856 -3.524,-3.672 -5.684,-4.864 z m -36.09,132.375 c 1.575,7.774 5.68,14.219 11.286,17.676 3.808,2.352 7.957,3.074 11.91,2.012 2.105,-0.559 3.953,-1.621 5.629,-2.922 5.265,-3.211 10.312,-5.945 15.156,-8.184 1.738,-0.789 2.715,-4.871 3.297,-6.472 0.789,-2.453 1.371,-5 1.625,-7.59 0.453,-5.02 -0.52,-10.078 -2.867,-14.578 -1.165,-2.246 -2.602,-4.395 -4.262,-6.309 -1.621,-1.828 -3.524,-3.711 -5.684,-4.863 -1.945,-1.067 -4.097,-1.602 -6.426,-1.113 -4.644,0.937 -9.257,1.796 -13.82,2.89 -0.976,0.039 -1.969,0.195 -2.941,0.477 -9.922,2.609 -15.715,15.617 -12.903,28.976 z m 50.164,6.141 16.2,26.992 c -2.735,0.656 -5.118,2.481 -6.11,5.371 -1.519,4.414 0.864,9.199 5.219,10.715 4.445,1.492 9.234,-0.859 10.754,-5.234 1.269,-3.762 -0.328,-7.657 -3.5,-9.739 L 419.91,436.48 c 1.09,0.372 2.242,0.75 3.313,0.86 4.218,0.301 8.882,-1.067 10.961,-5.02 1.976,-3.75 2.05,-10.117 -0.868,-13.566 -1.828,-2.176 -4.121,-3.926 -6.152,-5.879 0.606,2.891 0.387,5.547 -0.238,7.832 -0.988,-1.055 -1.922,-2.156 -3.035,-3.094 -0.125,-0.304 -0.301,-0.656 -0.411,-0.91 0.11,-3.223 -0.98,-6.465 -3.292,-9.726 -3.063,-2.305 -6.395,-4.461 -9.985,-6.407 2.102,3.203 3.465,6.7 3.625,10.305 -1.469,-0.793 -2.992,-1.555 -4.558,-2.18 -0.946,-4.441 -3.844,-8.621 -7.731,-12.207 -3.859,-1.504 -7.988,-2.773 -12.402,-3.836 3.383,3.457 6.234,7.598 6.949,12.313 -1.52,-0.281 -3.051,-0.613 -4.594,-0.789 -1.48,-5.266 -5.523,-9.582 -9.781,-12.832 -3.648,-0.676 -7.223,-1.153 -11.082,-1.36 4.082,3.782 7.551,8.575 7.984,14.239 -3.027,0.285 -4.101,-0.782 -5.152,-3.477 -0.902,-2.351 -2.324,-4.402 -3.969,-6.25 -1.648,-1.824 -4.054,-4.617 -6.687,-4.617 -1.461,0 -2.922,0.086 -4.344,0.105 -3.168,0.129 -6.344,0.383 -9.508,0.715 10.625,9.071 17.106,23.047 9.785,39.864 0.078,-0.012 0.168,-0.071 0.231,-0.098 z m -93.484,66.426 V 264.918 H 497.48 V 497.055 H 265.332" /><path
         id="path28"
         style="fill:#ffffff;fill-opacity:1;fill-rule:nonzero;stroke:none"
         d="m 322.645,400.121 c 7.835,-2.031 15.972,5.117 18.253,15.996 2.301,11.203 -2.128,21.321 -10.105,23.418 -7.82,2.063 -16.008,-5.086 -18.211,-15.965 -2.305,-10.859 2.203,-21.367 10.063,-23.449" /><path
         id="path30"
         style="fill:#ffffff;fill-opacity:1;fill-rule:nonzero;stroke:none"
         d="m 378.313,461.547 c 2.296,0.793 3.527,3.293 2.718,5.605 -0.801,2.278 -3.273,3.516 -5.597,2.715 -2.305,-0.769 -3.504,-3.281 -2.719,-5.554 0.793,-2.344 3.293,-3.547 5.598,-2.766" /><path
         id="path32"
         style="fill:#ffffff;fill-opacity:1;fill-rule:nonzero;stroke:none"
         d="m 65.2734,167.852 c -3.832,-1.758 -7.4726,-3.399 -9.914,-3.399 h -10.625 v -4.824 h 10.625 c 3.5039,0 7.4101,1.777 11.9453,3.848 5.5469,2.558 11.8594,5.41 18.4219,5.41 8.7226,0 16.3124,-3.828 16.9374,-4.102 v 5.274 c -3.289,1.386 -9.6327,3.613 -16.9374,3.613 -7.5977,0 -14.711,-3.223 -20.4532,-5.82" /><path
         id="path34"
         style="fill:#ffffff;fill-opacity:1;fill-rule:nonzero;stroke:none"
         d="m 169.52,71.875 c -5.711,2.6367 -12.836,5.8203 -20.493,5.8203 -7.226,0 -13.582,-2.2265 -16.879,-3.6133 v -5.2929 c 0.633,0.3125 8.188,4.1211 16.879,4.1211 6.618,0 12.93,-2.8907 18.508,-5.3907 4.52,-2.1093 8.418,-3.8476 11.891,-3.8476 h 10.64 v 4.8047 h -10.64 c -2.438,0 -6.063,1.6406 -9.906,3.3984" /><path
         id="path36"
         style="fill:#ffffff;fill-opacity:1;fill-rule:nonzero;stroke:none"
         d="m 65.2734,148.652 c -3.832,-1.738 -7.4726,-3.379 -9.914,-3.379 h -10.625 v -4.824 h 10.625 c 3.5039,0 7.4101,1.778 11.9453,3.848 5.5469,2.519 11.8594,5.371 18.4219,5.371 8.7226,0 16.3124,-3.77 16.9374,-4.102 v 5.313 c -3.289,1.426 -9.6327,3.594 -16.9374,3.594 -7.5977,0 -14.711,-3.223 -20.4532,-5.821" /><path
         id="path38"
         style="fill:#ffffff;fill-opacity:1;fill-rule:nonzero;stroke:none"
         d="m 65.2734,71.875 c -3.832,-1.7578 -7.4726,-3.3984 -9.914,-3.3984 h -10.625 v -4.8047 h 10.625 c 3.5039,0 7.4101,1.7383 11.9453,3.8476 5.5469,2.5 11.8594,5.3907 18.4219,5.3907 8.7226,0 16.3124,-3.8086 16.9374,-4.1211 v 5.2929 c -3.289,1.3868 -9.6327,3.6133 -16.9374,3.6133 -7.5977,0 -14.711,-3.1836 -20.4532,-5.8203" /><path
         id="path40"
         style="fill:#ffffff;fill-opacity:1;fill-rule:nonzero;stroke:none"
         d="m 65.2734,129.707 c -3.832,-1.777 -7.4726,-3.437 -9.914,-3.437 h -10.625 v -4.786 h 10.625 c 3.5039,0 7.4101,1.778 11.9453,3.829 5.5469,2.539 11.8594,5.39 18.4219,5.39 8.7226,0 16.3124,-3.769 16.9374,-4.101 v 5.312 c -3.289,1.387 -9.6327,3.613 -16.9374,3.613 -7.5977,0 -14.711,-3.222 -20.4532,-5.82" /><path
         id="path42"
         style="fill:#ffffff;fill-opacity:1;fill-rule:nonzero;stroke:none"
         d="m 65.2734,90.0977 c -3.832,-1.7188 -7.4726,-3.3789 -9.914,-3.3789 H 44.7344 V 81.875 h 10.625 c 3.5039,0 7.4101,1.7969 11.9453,3.8672 5.5469,2.5391 11.8594,5.3711 18.4219,5.3711 8.7226,0 16.3124,-3.7695 16.9374,-4.0625 v 5.2734 c -3.289,1.4063 -9.6327,3.6328 -16.9374,3.6328 -7.5977,0 -14.711,-3.2422 -20.4532,-5.8593" /><path
         id="path44"
         style="fill:#ffffff;fill-opacity:1;fill-rule:nonzero;stroke:none"
         d="m 169.52,90.0977 c -5.711,2.6171 -12.836,5.8593 -20.493,5.8593 -7.226,0 -13.582,-2.2265 -16.879,-3.6328 v -5.2734 c 0.633,0.293 8.188,4.0625 16.879,4.0625 6.618,0 12.93,-2.832 18.508,-5.3711 4.52,-2.0703 8.418,-3.8672 11.891,-3.8672 h 10.64 v 4.8438 h -10.64 c -2.438,0 -6.063,1.6601 -9.906,3.3789" /><path
         id="path46"
         style="fill:#ffffff;fill-opacity:1;fill-rule:nonzero;stroke:none"
         d="m 65.2734,110.293 c -3.832,-1.777 -7.4726,-3.438 -9.914,-3.438 h -10.625 v -4.804 h 10.625 c 3.5039,0 7.4101,1.777 11.9453,3.808 5.5469,2.559 11.8594,5.43 18.4219,5.43 8.7226,0 16.3124,-3.789 16.9374,-4.101 v 5.292 c -3.289,1.368 -9.6327,3.653 -16.9374,3.653 -7.5977,0 -14.711,-3.262 -20.4532,-5.84" /><path
         id="path48"
         style="fill:#ffffff;fill-opacity:1;fill-rule:nonzero;stroke:none"
         d="m 169.52,148.652 c -5.711,2.598 -12.836,5.821 -20.493,5.821 -7.226,0 -13.582,-2.168 -16.879,-3.594 v -5.313 c 0.633,0.332 8.188,4.102 16.879,4.102 6.618,0 12.93,-2.852 18.508,-5.371 4.52,-2.07 8.418,-3.848 11.891,-3.848 h 10.64 v 4.824 h -10.64 c -2.438,0 -6.063,1.641 -9.906,3.379" /><path
         id="path50"
         style="fill:#ffffff;fill-opacity:1;fill-rule:nonzero;stroke:none"
         d="m 169.52,110.293 c -5.711,2.578 -12.836,5.84 -20.493,5.84 -7.226,0 -13.582,-2.285 -16.879,-3.653 v -5.292 c 0.633,0.312 8.188,4.101 16.879,4.101 6.618,0 12.93,-2.871 18.508,-5.43 4.52,-2.031 8.418,-3.808 11.891,-3.808 h 10.64 v 4.804 h -10.64 c -2.438,0 -6.063,1.661 -9.906,3.438" /><path
         id="path52"
         style="fill:#ffffff;fill-opacity:1;fill-rule:nonzero;stroke:none"
         d="m 211.156,135.781 h -11.332 v 10.762 h 11.332 v -0.039 c 2.942,-0.02 5.328,-2.383 5.328,-5.371 0,-2.91 -2.386,-5.332 -5.328,-5.352 z m 0,-25.801 v -0.039 h -11.332 v 10.821 h 11.332 c 2.942,0 5.328,-2.422 5.328,-5.41 0,-2.95 -2.386,-5.372 -5.328,-5.372 z m 0,-24.9409 h -11.332 v 10.8007 h 11.332 c 2.942,-0.0585 5.328,-2.4414 5.328,-5.4101 0,-2.9297 -2.386,-5.3516 -5.328,-5.3906 z M 177.773,47.0898 c -13.488,0 -13.488,9.4336 -34.007,9.4336 -8.473,0 -20.286,-7.0703 -24.801,-10 V 180.449 c 4.664,2.676 16.285,8.867 24.633,8.867 14.539,0 23.722,-8.261 32.476,-8.261 8.77,0 21.059,1.289 21.059,1.289 L 197.27,48.2422 c 0,0 -10.75,-1.1524 -19.497,-1.1524 z m -63.121,-0.3515 c -4.812,3.0273 -16.2497,9.668 -24.4606,9.668 -14.4687,0 -20.0703,-9.4336 -33.5351,-9.4336 -8.9805,0 -19.7852,1.2695 -19.7852,1.2695 V 182.227 c 0,0 11.043,-1.309 19.7852,-1.309 8.8164,0 17.4179,8.203 33.3828,8.203 8.3437,0 19.9489,-6.016 24.6129,-8.691 z M 34.2227,149.492 H 21.8281 c -2.9453,0.059 -5.3437,2.461 -5.3437,5.371 0,3.008 2.3984,5.41 5.3437,5.41 h 12.3946 z m 0,-27.051 H 21.8281 c -2.9453,0.059 -5.3437,2.403 -5.3437,5.411 0,2.929 2.3984,5.332 5.3437,5.371 h 12.3946 z m 0,-24.941 H 21.8281 c -2.9453,0.0391 -5.3437,2.4414 -5.3437,5.41 0,2.91 2.3984,5.352 5.3437,5.371 h 12.3946 z m 0,-26.4062 H 21.8281 c -2.9453,0.0195 -5.3437,2.4414 -5.3437,5.371 0,2.9688 2.3984,5.3516 5.3437,5.3711 H 34.2227 Z M 0.40625,232.168 V 0 H 232.602 V 232.168 H 0.40625" /><path
         id="path54"
         style="fill:#ffffff;fill-opacity:1;fill-rule:nonzero;stroke:none"
         d="m 169.52,167.852 c -5.711,2.597 -12.836,5.82 -20.493,5.82 -7.226,0 -13.582,-2.227 -16.879,-3.613 v -5.274 c 0.633,0.274 8.188,4.102 16.879,4.102 6.618,0 12.93,-2.852 18.508,-5.41 4.52,-2.071 8.418,-3.848 11.891,-3.848 h 10.64 v 4.824 h -10.64 c -2.438,0 -6.063,1.641 -9.906,3.399" /><path
         id="path56"
         style="fill:#ffffff;fill-opacity:1;fill-rule:nonzero;stroke:none"
         d="m 169.52,129.707 c -5.711,2.598 -12.836,5.82 -20.493,5.82 -7.226,0 -13.582,-2.226 -16.879,-3.613 v -5.312 c 0.633,0.332 8.188,4.101 16.879,4.101 6.618,0 12.93,-2.851 18.508,-5.39 4.52,-2.051 8.418,-3.829 11.891,-3.829 h 10.64 v 4.786 h -10.64 c -2.438,0 -6.063,1.66 -9.906,3.437" /><path
         id="path58"
         style="fill:#ffffff;fill-opacity:1;fill-rule:nonzero;stroke:none"
         d="m 744.719,401.324 c 0,-7.402 -0.848,-14.472 -2.531,-21.211 -1.696,-6.758 -4.516,-12.734 -8.473,-17.929 -3.965,-5.188 -9.145,-9.336 -15.574,-12.454 -6.422,-3.113 -14.309,-4.667 -23.653,-4.667 -9.347,0 -17.226,1.554 -23.66,4.667 -6.426,3.118 -11.613,7.266 -15.57,12.454 -3.965,5.195 -6.785,11.171 -8.465,17.929 -1.691,6.739 -2.531,13.809 -2.531,21.211 v 85.071 h 12.847 v -81.77 c 0,-4.934 0.446,-10.187 1.364,-15.773 0.906,-5.575 2.687,-10.77 5.355,-15.567 2.656,-4.805 6.422,-8.769 11.289,-11.875 4.863,-3.113 11.321,-4.676 19.371,-4.676 8.047,0 14.5,1.563 19.375,4.676 4.86,3.106 8.625,7.07 11.282,11.875 2.664,4.797 4.445,9.992 5.359,15.567 0.906,5.586 1.359,10.839 1.359,15.773 v 81.77 h 12.856 v -85.071" /><path
         id="path60"
         style="fill:#ffffff;fill-opacity:1;fill-rule:nonzero;stroke:none"
         d="m 790.66,486.395 h 16.547 l 83.91,-120.696 h 0.387 v 120.696 h 12.848 V 348.559 h -16.547 l -83.91,120.703 h -0.383 V 348.559 H 790.66 v 137.836" /><path
         id="path62"
         style="fill:#ffffff;fill-opacity:1;fill-rule:nonzero;stroke:none"
         d="m 951.656,486.395 h 12.852 V 348.559 h -12.852 v 137.836" /><path
         id="path64"
         style="fill:#ffffff;fill-opacity:1;fill-rule:nonzero;stroke:none"
         d="m 998.965,486.395 h 13.825 l 44.39,-120.891 44.77,120.891 h 13.63 l -52.37,-137.836 h -12.85 l -51.395,137.836" /><path
         id="path66"
         style="fill:#ffffff;fill-opacity:1;fill-rule:nonzero;stroke:none"
         d="m 1149.26,486.395 h 84.3 v -11.68 h -71.46 v -49.067 h 66.98 v -11.679 h -66.98 v -53.731 h 74.57 v -11.679 h -87.41 v 137.836" /><path
         id="path68"
         style="fill:#ffffff;fill-opacity:1;fill-rule:nonzero;stroke:none"
         d="m 1293.32,425.648 h 27.26 c 6.74,0 12.23,0.852 16.45,2.54 4.21,1.679 7.49,3.761 9.83,6.23 2.33,2.461 3.92,5.117 4.77,7.98 0.85,2.852 1.26,5.457 1.26,7.782 0,2.336 -0.41,4.933 -1.26,7.793 -0.85,2.851 -2.44,5.519 -4.77,7.98 -2.34,2.469 -5.62,4.539 -9.83,6.231 -4.22,1.683 -9.71,2.531 -16.45,2.531 h -27.26 z m -12.85,60.747 h 36.21 c 1.82,0 4.28,-0.067 7.41,-0.196 3.1,-0.129 6.48,-0.519 10.11,-1.164 3.64,-0.656 7.34,-1.691 11.11,-3.113 3.75,-1.434 7.12,-3.508 10.11,-6.234 2.99,-2.719 5.45,-6.161 7.41,-10.313 1.94,-4.148 2.92,-9.219 2.92,-15.195 0,-6.621 -1.14,-12.071 -3.41,-16.348 -2.28,-4.285 -5.14,-7.754 -8.58,-10.41 -3.44,-2.676 -7.22,-4.656 -11.37,-5.938 -4.16,-1.296 -8.13,-2.207 -11.89,-2.722 l 40.11,-66.203 h -14.6 l -38.73,65.41 h -23.96 v -65.41 h -12.85 v 137.836" /><path
         id="path70"
         style="fill:#ffffff;fill-opacity:1;fill-rule:nonzero;stroke:none"
         d="m 1414.6,374.066 c 3.37,-5.847 7.76,-10.195 13.14,-13.046 5.38,-2.86 11.51,-4.286 18.41,-4.286 4.27,0 8.3,0.645 12.07,1.954 3.76,1.289 7.03,3.105 9.82,5.437 2.79,2.344 4.98,5.176 6.62,8.488 1.62,3.309 2.43,7.039 2.43,11.192 0,4.793 -0.99,8.758 -3.01,11.875 -2.01,3.113 -4.71,5.664 -8.08,7.695 -3.38,2 -7.18,3.73 -11.39,5.156 -4.21,1.426 -8.58,2.84 -13.04,4.278 -4.49,1.433 -8.84,3.046 -13.05,4.871 -4.21,1.808 -8.02,4.172 -11.39,7.101 -3.38,2.918 -6.07,6.582 -8.08,10.996 -2.01,4.414 -3.01,9.864 -3.01,16.356 0,6.094 1.2,11.515 3.6,16.25 2.4,4.746 5.64,8.703 9.73,11.887 4.08,3.171 8.79,5.574 14.12,7.195 5.32,1.621 10.9,2.441 16.74,2.441 7.53,0 14.49,-1.343 20.93,-4 6.41,-2.66 11.96,-7.101 16.64,-13.332 l -11.1,-7.98 c -3.23,4.543 -7.03,7.949 -11.39,10.215 -4.34,2.277 -9.5,3.402 -15.47,3.402 -4.14,0 -8.12,-0.547 -11.88,-1.645 -3.77,-1.101 -7.04,-2.722 -9.83,-4.871 -2.78,-2.14 -5.03,-4.836 -6.72,-8.078 -1.68,-3.25 -2.52,-7.078 -2.52,-11.484 0,-6.883 1.75,-12.168 5.25,-15.867 3.5,-3.703 7.88,-6.621 13.14,-8.762 5.26,-2.137 10.97,-4.012 17.14,-5.652 6.16,-1.614 11.86,-3.789 17.13,-6.516 5.25,-2.734 9.64,-6.523 13.13,-11.387 3.51,-4.871 5.27,-11.582 5.27,-20.144 0,-6.242 -1.18,-11.75 -3.5,-16.555 -2.34,-4.805 -5.5,-8.855 -9.45,-12.168 -3.98,-3.32 -8.54,-5.801 -13.73,-7.488 -5.19,-1.692 -10.58,-2.531 -16.15,-2.531 -9.1,0 -17.47,1.574 -25.12,4.757 -7.66,3.192 -14.2,8.543 -19.66,16.075 l 12.26,8.171" /><path
         id="path72"
         style="fill:#ffffff;fill-opacity:1;fill-rule:nonzero;stroke:none"
         d="m 1532.97,486.395 h 12.85 V 348.559 h -12.85 v 137.836" /><path
         id="path74"
         style="fill:#ffffff;fill-opacity:1;fill-rule:nonzero;stroke:none"
         d="m 1629.73,474.715 h -47.11 v 11.68 h 107.07 v -11.68 h -47.11 V 348.559 h -12.85 v 126.156" /><path
         id="path76"
         style="fill:#ffffff;fill-opacity:1;fill-rule:nonzero;stroke:none"
         d="m 1757.63,407.934 -50.62,78.461 h 15.38 l 41.67,-65.403 42.63,65.403 h 14.41 l -50.63,-78.461 v -59.375 h -12.84 v 59.375" /><path
         id="path78"
         style="fill:#ffffff;fill-opacity:1;fill-rule:nonzero;stroke:none"
         d="m 1893.91,393.539 c 0,-5.066 0.8,-9.832 2.43,-14.324 1.62,-4.473 3.99,-8.352 7.1,-11.672 3.12,-3.309 6.88,-5.938 11.3,-7.879 4.4,-1.953 9.34,-2.93 14.8,-2.93 5.45,0 10.37,0.977 14.79,2.93 4.42,1.941 8.17,4.57 11.3,7.879 3.12,3.32 5.48,7.199 7.1,11.672 1.63,4.492 2.43,9.258 2.43,14.324 0,5.051 -0.8,9.836 -2.43,14.297 -1.62,4.484 -3.98,8.379 -7.1,11.691 -3.13,3.301 -6.88,5.938 -11.3,7.879 -4.42,1.946 -9.34,2.93 -14.79,2.93 -5.46,0 -10.4,-0.984 -14.8,-2.93 -4.42,-1.941 -8.18,-4.578 -11.3,-7.879 -3.11,-3.312 -5.48,-7.207 -7.1,-11.691 -1.63,-4.461 -2.43,-9.246 -2.43,-14.297 z m -11.68,0 c 0,6.875 1.16,13.195 3.5,18.965 2.34,5.793 5.58,10.781 9.73,15 4.15,4.219 9.16,7.5 15,9.836 5.83,2.332 12.19,3.504 19.08,3.504 6.87,0 13.2,-1.172 18.97,-3.504 5.78,-2.336 10.78,-5.617 15,-9.836 4.21,-4.219 7.5,-9.207 9.82,-15 2.35,-5.77 3.51,-12.09 3.51,-18.965 0,-6.883 -1.16,-13.223 -3.51,-18.992 -2.32,-5.774 -5.61,-10.774 -9.82,-14.992 -4.22,-4.219 -9.22,-7.489 -15,-9.825 -5.77,-2.332 -12.1,-3.496 -18.97,-3.496 -6.89,0 -13.25,1.164 -19.08,3.496 -5.84,2.336 -10.85,5.606 -15,9.825 -4.15,4.218 -7.39,9.218 -9.73,14.992 -2.34,5.769 -3.5,12.109 -3.5,18.992" /><path
         id="path80"
         style="fill:#ffffff;fill-opacity:1;fill-rule:nonzero;stroke:none"
         d="m 2015.58,427.992 h -18.69 V 438.5 h 18.69 v 29.406 c 0,5.832 0.88,10.668 2.64,14.496 1.75,3.832 3.9,6.911 6.52,9.254 2.59,2.332 5.47,3.989 8.65,4.961 3.18,0.977 6.2,1.457 9.05,1.457 5.46,0 9.94,-0.781 13.43,-2.336 l -2.33,-10.125 c -2.59,1.301 -6.11,1.953 -10.52,1.953 -10.51,0 -15.76,-7.98 -15.76,-23.949 V 438.5 h 21.02 v -10.508 h -21.02 v -79.433 h -11.68 v 79.433" /><path
         id="path82"
         style="fill:#ffffff;fill-opacity:1;fill-rule:nonzero;stroke:none"
         d="m 667.102,32.1484 h 52.91 c 13.547,0 24.468,1.6407 32.765,4.9024 8.293,3.2617 14.661,7.3437 19.098,12.2656 4.434,4.9024 7.41,10.0977 8.941,15.5859 1.512,5.4883 2.27,10.4493 2.27,14.8829 0,9.1211 -1.754,16.9531 -5.254,23.4958 -3.5,6.543 -8.062,11.856 -13.668,15.938 -5.609,4.082 -11.973,7.07 -19.098,8.926 -7.132,1.875 -14.308,2.812 -21.55,2.812 h -56.414 z m 0,119.8436 h 48.011 c 11.903,0 21.602,1.446 29.075,4.375 7.476,2.93 13.316,6.485 17.527,10.684 4.203,4.199 7.008,8.711 8.406,13.496 1.402,4.785 2.106,9.16 2.106,13.144 0,8.633 -1.461,15.821 -4.379,21.543 -2.926,5.723 -6.836,10.274 -11.743,13.672 -4.91,3.379 -10.632,5.782 -17.167,7.188 -6.54,1.386 -13.446,2.109 -20.68,2.109 h -51.156 z m -23.137,107.223 h 71.496 c 9.34,0 18.801,-0.762 28.379,-2.281 9.578,-1.504 18.164,-4.668 25.762,-9.454 7.586,-4.804 13.777,-11.445 18.562,-19.98 4.789,-8.516 7.191,-19.805 7.191,-33.809 0,-12.617 -3.738,-23.593 -11.218,-32.949 -7.473,-9.336 -18.571,-15.527 -33.285,-18.574 v -0.684 c 8.171,-0.703 15.652,-2.636 22.429,-5.8 6.77,-3.164 12.61,-7.344 17.52,-12.598 4.906,-5.273 8.695,-11.523 11.387,-18.75 2.679,-7.2657 4.027,-15.1954 4.027,-23.8282 0,-14.2773 -2.746,-25.8789 -8.231,-34.8828 -5.496,-8.9844 -12.382,-16.0547 -20.679,-21.1914 -8.297,-5.1563 -17.289,-8.6523 -26.977,-10.5078 -9.699,-1.875 -18.758,-2.8125 -27.16,-2.8125 H 643.965 V 259.215" /><path
         id="path84"
         style="fill:#ffffff;fill-opacity:1;fill-rule:nonzero;stroke:none"
         d="m 884.707,149.883 h 49.063 c 12.144,0 22.015,1.523 29.613,4.551 7.586,3.046 13.492,6.777 17.695,11.211 4.199,4.453 7.063,9.238 8.578,14.375 1.52,5.136 2.282,9.804 2.282,14.023 0,4.199 -0.762,8.867 -2.282,14.023 -1.515,5.118 -4.379,9.922 -8.578,14.356 -4.203,4.433 -10.109,8.183 -17.695,11.211 -7.598,3.047 -17.469,4.57 -29.613,4.57 h -49.063 z m -23.129,109.332 h 65.184 c 3.261,0 7.707,-0.117 13.316,-0.352 5.606,-0.215 11.676,-0.937 18.223,-2.105 6.535,-1.172 13.191,-3.028 19.969,-5.606 6.773,-2.578 12.847,-6.308 18.222,-11.211 5.368,-4.902 9.808,-11.093 13.318,-18.574 3.51,-7.461 5.26,-16.582 5.26,-27.324 0,-11.914 -2.05,-21.738 -6.14,-29.434 -4.09,-7.714 -9.223,-13.964 -15.414,-18.75 -6.188,-4.785 -13.028,-8.359 -20.504,-10.683 -7.469,-2.344 -14.598,-3.985 -21.375,-4.922 L 1023.83,11.1133 H 997.543 L 927.809,128.848 H 884.707 V 11.1133 H 861.578 V 259.215" /><path
         id="path86"
         style="fill:#ffffff;fill-opacity:1;fill-rule:nonzero;stroke:none"
         d="M 1178.37,233.984 1120.54,98.0273 h 113.89 z m -10.87,25.231 h 23.83 L 1295.77,11.1133 h -25.93 l -26.99,65.8789 H 1111.44 L 1083.4,11.1133 h -24.18 L 1167.5,259.215" /><path
         id="path88"
         style="fill:#ffffff;fill-opacity:1;fill-rule:nonzero;stroke:none"
         d="m 1365.83,32.1484 h 47.67 c 16.35,0 31.67,2.0313 45.9,6.1133 14.26,4.1016 26.65,10.3516 37.15,18.7696 10.51,8.3984 18.8,19.1015 24.89,32.0507 6.07,12.969 9.11,28.32 9.11,46.094 0,17.754 -3.04,33.105 -9.11,46.074 -6.09,12.949 -14.38,23.652 -24.89,32.051 -10.5,8.418 -22.89,14.668 -37.15,18.769 -14.23,4.063 -29.55,6.133 -45.9,6.133 h -47.67 z m -23.12,227.0666 h 76.75 c 21.49,0 39.71,-2.633 54.67,-7.887 14.95,-5.254 27.39,-11.973 37.31,-20.137 9.94,-8.183 17.75,-17.226 23.49,-27.168 5.72,-9.921 9.92,-19.453 12.61,-28.554 2.69,-9.121 4.38,-17.344 5.08,-24.707 0.71,-7.364 1.05,-12.559 1.05,-15.586 0,-3.047 -0.34,-8.242 -1.05,-15.606 -0.7,-7.363 -2.39,-15.586 -5.08,-24.7067 -2.69,-9.1016 -6.89,-18.6328 -12.61,-28.5742 -5.74,-9.9024 -13.55,-18.9649 -23.49,-27.1289 -9.92,-8.1836 -22.36,-14.9024 -37.31,-20.1563 -14.96,-5.2539 -33.18,-7.8906 -54.67,-7.8906 h -76.75 V 259.215" /><path
         id="path90"
         style="fill:#ffffff;fill-opacity:1;fill-rule:nonzero;stroke:none"
         d="m 1607.99,259.215 h 148.58 v -21.012 h -125.45 v -88.32 h 116.69 V 128.848 H 1631.12 V 11.1133 h -23.13 V 259.215" /><path
         id="path92"
         style="fill:#ffffff;fill-opacity:1;fill-rule:nonzero;stroke:none"
         d="m 1831.31,135.176 c 0,-15.43 2.45,-29.785 7.36,-43.1252 4.91,-13.3008 11.91,-24.8633 21.03,-34.668 9.11,-9.8242 20.15,-17.539 33.11,-23.1445 12.97,-5.6055 27.51,-8.3985 43.62,-8.3985 16.12,0 30.66,2.793 43.63,8.3985 12.97,5.6055 24.01,13.3203 33.12,23.1445 9.11,9.8047 16.12,21.3672 21.02,34.668 4.92,13.3402 7.37,27.6952 7.37,43.1252 0,15.41 -2.45,29.765 -7.37,43.086 -4.9,13.32 -11.91,24.883 -21.02,34.707 -9.11,9.804 -20.15,17.519 -33.12,23.125 -12.97,5.605 -27.51,8.398 -43.63,8.398 -16.11,0 -30.65,-2.793 -43.62,-8.398 -12.96,-5.606 -24,-13.321 -33.11,-23.125 -9.12,-9.824 -16.12,-21.387 -21.03,-34.707 -4.91,-13.321 -7.36,-27.676 -7.36,-43.086 z m -23.12,0 c 0,18.906 3.14,36.308 9.46,52.207 6.3,15.898 15.06,29.609 26.27,41.172 11.22,11.562 24.71,20.625 40.49,27.168 15.75,6.527 33.1,9.8 52.02,9.8 18.93,0 36.27,-3.273 52.04,-9.8 15.77,-6.543 29.27,-15.606 40.47,-27.168 11.22,-11.563 19.98,-25.274 26.29,-41.172 6.31,-15.899 9.46,-33.301 9.46,-52.207 0,-18.946 -3.15,-36.4065 -9.46,-52.4026 -6.31,-15.9961 -15.07,-29.7851 -26.29,-41.3476 -11.2,-11.5625 -24.7,-20.5469 -40.47,-26.9922 -15.77,-6.40626 -33.11,-9.62891 -52.04,-9.62891 -18.92,0 -36.27,3.22265 -52.02,9.62891 -15.78,6.4453 -29.27,15.4297 -40.49,26.9922 -11.21,11.5625 -19.97,25.3515 -26.27,41.3476 -6.32,15.9961 -9.46,33.4566 -9.46,52.4026" /><path
         id="path94"
         style="fill:#ffffff;fill-opacity:1;fill-rule:nonzero;stroke:none"
         d="m 2148.54,149.883 h 49.06 c 12.16,0 22.02,1.523 29.61,4.551 7.59,3.046 13.5,6.777 17.7,11.211 4.21,4.453 7.06,9.238 8.58,14.375 1.52,5.136 2.28,9.804 2.28,14.023 0,4.199 -0.76,8.867 -2.28,14.023 -1.52,5.118 -4.37,9.922 -8.58,14.356 -4.2,4.433 -10.11,8.183 -17.7,11.211 -7.59,3.047 -17.45,4.57 -29.61,4.57 h -49.06 z m -23.12,109.332 h 65.16 c 3.29,0 7.73,-0.117 13.33,-0.352 5.61,-0.215 11.69,-0.937 18.22,-2.105 6.54,-1.172 13.2,-3.028 19.97,-5.606 6.79,-2.578 12.86,-6.308 18.24,-11.211 5.37,-4.902 9.8,-11.093 13.3,-18.574 3.51,-7.461 5.26,-16.582 5.26,-27.324 0,-11.914 -2.04,-21.738 -6.13,-29.434 -4.09,-7.714 -9.22,-13.964 -15.43,-18.75 -6.18,-4.785 -13.01,-8.359 -20.49,-10.683 -7.48,-2.344 -14.61,-3.985 -21.38,-4.922 l 72.19,-119.1407 h -26.28 l -69.73,117.7347 h -43.11 V 11.1133 h -23.12 V 259.215" /><path
         id="path96"
         style="fill:#ffffff;fill-opacity:1;fill-rule:nonzero;stroke:none"
         d="m 2363.34,32.1484 h 47.67 c 16.35,0 31.66,2.0313 45.91,6.1133 14.26,4.1016 26.63,10.3516 37.14,18.7696 10.52,8.3984 18.8,19.1015 24.88,32.0507 6.08,12.969 9.11,28.32 9.11,46.094 0,17.754 -3.03,33.105 -9.11,46.074 -6.08,12.949 -14.36,23.652 -24.88,32.051 -10.51,8.418 -22.88,14.668 -37.14,18.769 -14.25,4.063 -29.56,6.133 -45.91,6.133 h -47.67 z m -23.12,227.0666 h 76.75 c 21.49,0 39.71,-2.633 54.67,-7.887 14.94,-5.254 27.39,-11.973 37.32,-20.137 9.92,-8.183 17.75,-17.226 23.48,-27.168 5.71,-9.921 9.93,-19.453 12.6,-28.554 2.69,-9.121 4.38,-17.344 5.09,-24.707 0.7,-7.364 1.06,-12.559 1.06,-15.586 0,-3.047 -0.36,-8.242 -1.06,-15.606 -0.71,-7.363 -2.4,-15.586 -5.09,-24.7067 -2.67,-9.1016 -6.89,-18.6328 -12.6,-28.5742 -5.73,-9.9024 -13.56,-18.9649 -23.48,-27.1289 -9.93,-8.1836 -22.38,-14.9024 -37.32,-20.1563 -14.96,-5.2539 -33.18,-7.8906 -54.67,-7.8906 h -76.75 V 259.215" /></g></g></svg>